<mxfile host="app.diagrams.net" modified="2023-06-19T18:38:35.904Z" agent="Mozilla/5.0 (X11; Linux x86_64) AppleWebKit/537.36 (KHTML, like Gecko) Chrome/114.0.0.0 Safari/537.36" version="21.5.0" etag="vBgt9pYkAyolcZqc1yCM" type="github">
  <diagram name="PÃ¡gina-1" id="mHjVPvmtolfWuThzxFDw">
    <mxGraphModel>
      <root>
        <mxCell id="0" />
        <mxCell id="1" parent="0" />
      </root>
    </mxGraphModel>
  </diagram>
</mxfile>
